<?xml version="1.0" encoding="utf-8"?>
<!-- Generator: Adobe Illustrator 23.0.5, SVG Export Plug-In . SVG Version: 6.00 Build 0)  -->
<svg version="1.1" id="Layer_1" xmlns="http://www.w3.org/2000/svg" xmlns:xlink="http://www.w3.org/1999/xlink" x="0px" y="0px"
	 viewBox="0 0 24 24" style="enable-background:new 0 0 24 24;" xml:space="preserve">
<style type="text/css">
	.st0{fill:#FCFCFC;}
</style>
<g id="XMLID_28045_">
	<path id="XMLID_28046_" class="st0" d="M21.69,13.54c-1.36-1.16-3.37-1.66-6-1.48c1.71-1.17,2.83-3.13,2.83-5.35
		c0-3.57-2.9-6.47-6.47-6.47c-3.57,0-6.47,2.9-6.47,6.47c0,2.11,1.01,3.98,2.58,5.17c-1.89-0.19-5.88-0.05-7.09,4.16
		c-0.01,0.04-0.02,0.09-0.02,0.14v7.35c0,0.27,0.22,0.49,0.49,0.49H22.8c0.27,0,0.49-0.22,0.49-0.49v-7c0-0.01,0-0.02,0-0.03
		C23.28,16.43,23.17,14.82,21.69,13.54z M6.51,6.72c0-3.06,2.49-5.54,5.54-5.54c3.06,0,5.54,2.49,5.54,5.54
		c0,3.05-2.47,5.53-5.52,5.54h-0.05C8.98,12.25,6.51,9.77,6.51,6.72z M11.96,14.23h0.47l0.7,1.45l-0.96,1.87l-0.72-1.41L11.96,14.23
		z M11.37,13.25c0-0.18,0.15-0.33,0.33-0.33h0.93c0.18,0,0.33,0.15,0.33,0.33c0,0.18-0.15,0.33-0.33,0.33H11.7
		C11.52,13.58,11.37,13.43,11.37,13.25z M13.1,14.11c0.31-0.17,0.52-0.49,0.52-0.86c0-0.09-0.01-0.17-0.03-0.25
		c0.39-0.1,0.77-0.23,1.12-0.39l-1.2,2.34L13.1,14.11z M11.3,14.14l-0.29,1.12l-1.27-2.5c0.32,0.12,0.66,0.22,1,0.3
		c-0.01,0.06-0.02,0.13-0.02,0.2C10.72,13.65,10.96,13.99,11.3,14.14z M22.3,23.03H2.04v-6.78c1.23-4.1,5.66-3.5,6.7-3.3l3,5.9
		c0.08,0.16,0.25,0.27,0.44,0.27h0c0.18,0,0.35-0.1,0.44-0.27l2.98-5.79c2.43-0.19,4.26,0.22,5.44,1.22
		c1.13,0.96,1.27,2.14,1.28,2.27V23.03z"/>
</g>
</svg>
